<svg xmlns="http://www.w3.org/2000/svg" fill="none" viewBox="0 0 24 24" height="24" width="24">
  <g id="cake-alt">
    <path id="Union" fill="#6b7280" d="M8.99902 2.90247c0.47795 -0.27648 1.08958 -0.11354 1.36618 0.36425 0.2763 0.47792 0.1135 1.08961 -0.3642 1.36621 -0.21375 0.12368 -0.37476 0.3229 -0.4512 0.55957 0.9536 0.35675 1.6757 1.18305 1.8857 2.19825l9.9122 3.67185c0.392 0.1454 0.6523 0.5193 0.6523 0.9375v8c-0.0001 1.1045 -0.8955 2 -2 2H4c-1.10452 0 -1.99993 -0.8955 -2 -2v-8c0 -0.247 0.09162 -0.4853 0.25684 -0.6689l3.25781 -3.62112c0.11381 -1.18534 0.91742 -2.16774 2.00488 -2.54394 0.10751 -0.96968 0.67646 -1.79895 1.47949 -2.26367M4 18.0001v2h16v-2zm0 -2h16v-2H4zm7.1445 -6.58494c-0.5056 0.94294 -1.49968 1.58494 -2.6445 1.58494 -0.92091 0 -1.74363 -0.4162 -2.29395 -1.06931L4.34473 12.0001H18.123z" stroke-width="1"></path>
  </g>
</svg>