<svg xmlns="http://www.w3.org/2000/svg" fill="none" viewBox="0 0 24 24" height="24" width="24">
  <g id="school">
    <path id="Union" fill="#6b7280" d="M11.0283 4.39557c0.6041 -0.33554 1.3394 -0.33557 1.9434 0l8.4873 4.71582 0.4355 0.21777C22.572 9.66797 23 10.3607 23 11.1182v4.8819c0 0.5522 -0.4478 0.9999 -1 1 -0.5523 0 -1 -0.4478 -1 -1v-4.8565l-2 1.1113v4.7452c0 0.1552 -0.0361 0.3084 -0.1055 0.4472L18 17.0001c0.8352 0.4175 0.8902 0.4459 0.8936 0.4482v0.001l-0.002 0.0029c-0.0009 0.0017 -0.0019 0.0039 -0.0029 0.0059 -0.0022 0.0042 -0.0049 0.009 -0.0078 0.0146 -0.006 0.0115 -0.0132 0.026 -0.0225 0.043 -0.0186 0.0339 -0.0446 0.0782 -0.0772 0.1318 -0.0651 0.1074 -0.1594 0.252 -0.2861 0.4209 -0.2531 0.3375 -0.638 0.7772 -1.1826 1.2129C16.2105 20.1629 14.4929 21 12 21.0001c-2.49285 0 -4.21047 -0.8372 -5.3125 -1.7188 -0.54463 -0.4357 -0.9295 -0.8754 -1.18262 -1.2129 -0.12663 -0.1688 -0.22094 -0.3135 -0.28613 -0.4209 -0.03256 -0.0536 -0.05852 -0.0979 -0.07715 -0.1318 -0.0093 -0.0169 -0.01647 -0.0315 -0.02246 -0.043 -0.00292 -0.0055 -0.00566 -0.0104 -0.00781 -0.0146 -0.00102 -0.002 -0.00208 -0.0042 -0.00293 -0.0059l-0.00195 -0.0029v-0.001c0.00394 -0.0026 0.06271 -0.0328 0.89355 -0.4482l-0.89453 0.4472c-0.06942 -0.1388 -0.10546 -0.292 -0.10547 -0.4472v-4.7452l-1.69922 -0.9433c-1.02855 -0.5715 -1.02855 -2.05153 0 -2.62306zm1.9434 11.20903c-0.604 0.3355 -1.3394 0.3355 -1.9434 0L7 13.3663v3.3496c0.02942 0.0437 0.06217 0.0969 0.10449 0.1533 0.16877 0.225 0.44032 0.5355 0.83301 0.8496 0.77298 0.6184 2.0555 1.2813 4.0625 1.2813 2.007 -0.0001 3.2895 -0.6629 4.0625 -1.2813 0.3927 -0.3142 0.6643 -0.6246 0.833 -0.8496 0.0423 -0.0565 0.0751 -0.1096 0.1045 -0.1533v-3.3496zm-7.91213 -5.6045L12 13.8565l6.9414 -3.8564L12 6.14362z" stroke-width="1"></path>
  </g>
</svg>