<svg viewBox="0 0 16 16" fill="none" xmlns="http://www.w3.org/2000/svg" id="External-Link-Alt--Streamline-Unicons" height="16" width="16">
  <desc>
    External Link Alt Streamline Icon: https://streamlinehq.com
  </desc>
  <path d="M12.704 7.074866666666666c-0.20793333333333333 0 -0.4073333333333333 0.08266666666666667 -0.5543333333333333 0.22966666666666663s-0.22966666666666663 0.34639999999999993 -0.22966666666666663 0.5543333333333333v5.629133333333333c0 0.20793333333333333 -0.08259999999999999 0.4073333333333333 -0.22959999999999997 0.5544s-0.3464666666666667 0.22959999999999997 -0.5544 0.22959999999999997H2.5119999999999996c-0.20793333333333333 0 -0.4073333333333333 -0.08259999999999999 -0.5544 -0.22959999999999997 -0.147 -0.14706666666666665 -0.22959999999999997 -0.3464666666666667 -0.22959999999999997 -0.5544V4.864c0 -0.20793333333333333 0.08259999999999999 -0.4073333333333333 0.22959999999999997 -0.5544 0.14706666666666665 -0.147 0.3464666666666667 -0.22959999999999997 0.5544 -0.22959999999999997h5.629133333333333c0.20793333333333333 0 0.4073333333333333 -0.08259999999999999 0.5543333333333333 -0.22959999999999997 0.147 -0.14706666666666665 0.22966666666666663 -0.3464666666666667 0.22966666666666663 -0.5544s-0.08266666666666667 -0.4073333333333333 -0.22966666666666663 -0.5544c-0.147 -0.147 -0.34639999999999993 -0.22959999999999997 -0.5543333333333333 -0.22959999999999997H2.5119999999999996c-0.6237999999999999 0 -1.222 0.24779999999999996 -1.6631333333333331 0.6888666666666667C0.4078 3.642 0.15999999999999998 4.2402 0.15999999999999998 4.864v8.623999999999999c0 0.6237333333333333 0.24779999999999996 1.222 0.6888666666666667 1.6631333333333331 0.44113333333333327 0.4410666666666666 1.0393333333333332 0.6888666666666667 1.6631333333333331 0.6888666666666667h8.623999999999999c0.6237333333333333 0 1.222 -0.24779999999999996 1.6631333333333331 -0.6888666666666667 0.4410666666666666 -0.44113333333333327 0.6888666666666667 -1.0393999999999999 0.6888666666666667 -1.6631333333333331v-5.629133333333333c0 -0.20793333333333333 -0.08259999999999999 -0.4073333333333333 -0.22959999999999997 -0.5543333333333333s-0.3464666666666667 -0.22966666666666663 -0.5544 -0.22966666666666663ZM15.777266666666666 0.6460666666666666c-0.07953333333333333 -0.19153333333333333 -0.2318 -0.3438 -0.42333333333333334 -0.42333333333333334 -0.09426666666666667 -0.0402 -0.19546666666666668 -0.06146666666666667 -0.29793333333333333 -0.06273333333333334h-4.704c-0.20793333333333333 0 -0.4073333333333333 0.08259999999999999 -0.5543333333333333 0.22959999999999997 -0.147 0.14706666666666665 -0.22966666666666663 0.3464666666666667 -0.22966666666666663 0.5544s0.08266666666666667 0.4073333333333333 0.22966666666666663 0.5544c0.147 0.147 0.34639999999999993 0.22959999999999997 0.5543333333333333 0.22959999999999997h2.8145333333333333L5.091333333333333 9.795333333333332c-0.07346666666666667 0.07293333333333332 -0.13179999999999997 0.15966666666666665 -0.1716 0.2551333333333333 -0.0398 0.09559999999999999 -0.06026666666666666 0.19806666666666664 -0.06026666666666666 0.3015333333333333s0.020466666666666668 0.20593333333333333 0.06026666666666666 0.3015333333333333c0.0398 0.09546666666666666 0.09813333333333332 0.18219999999999997 0.1716 0.2551333333333333 0.07293333333333332 0.07346666666666667 0.1596 0.13179999999999997 0.2551333333333333 0.1716 0.09553333333333333 0.0398 0.19806666666666664 0.06026666666666666 0.3015333333333333 0.06026666666666666s0.206 -0.020466666666666668 0.3015333333333333 -0.06026666666666666c0.09553333333333333 -0.0398 0.18219999999999997 -0.09813333333333332 0.2551333333333333 -0.1716L14.272 2.833466666666667V5.648c0 0.20793333333333333 0.08266666666666667 0.4073333333333333 0.22966666666666663 0.5544 0.147 0.147 0.34639999999999993 0.22959999999999997 0.5543333333333333 0.22959999999999997 0.20793333333333333 0 0.4074 -0.08259999999999999 0.5544 -0.22959999999999997 0.147 -0.14706666666666665 0.22959999999999997 -0.3464666666666667 0.22959999999999997 -0.5544V0.944c-0.0012666666666666666 -0.10246666666666666 -0.0226 -0.20366666666666666 -0.06273333333333334 -0.29793333333333333Z" fill="#000000" stroke-width="0.6667"></path>
</svg>