<svg xmlns="http://www.w3.org/2000/svg" fill="none" viewBox="0 0 24 24" height="24" width="24">
  <g id="Design-Services-Fill">
    <path id="Union" fill="#000000" d="M6.36903 2.22462c0.39277 -0.32035 0.97177 -0.29775 1.33789 0.06836l4.79298 4.79297 4.793 -4.79297 0.0761 -0.06836c0.3928 -0.32035 0.9718 -0.29775 1.3379 0.06836l3 3 0.0684 0.07618c0.2987 0.36657 0.2989 0.89523 0 1.26171l-0.0684 0.07618L16.9139 11.5l4.793 4.793c0.3904 0.3905 0.3905 1.0236 0 1.414l-4 4c-0.3905 0.3904 -1.0235 0.3904 -1.414 0l-4.793 -4.7929 -3.79298 3.7929c-0.1875 0.1874 -0.44194 0.293 -0.70704 0.293h-4v-4l0.00489 -0.0986c0.02268 -0.2289 0.12406 -0.4443 0.28808 -0.6084L7.08582 12.5 2.29285 7.70705c-0.39049 -0.3905 -0.39044 -1.02354 0 -1.41407l4 -4zM12.9139 15.5l4.086 4.0859L19.5858 17l-1.3359 -1.3359 -1.043 1.0429 -1.414 -1.414 1.0429 -1.043 -1.3359 -1.3359zM4.41395 7.00001l4.08593 4.08589 2.58592 -2.58589 -1.33592 -1.33593 -1.04296 1.04297 -1.41407 -1.41407 1.04297 -1.04297 -1.33594 -1.33593zm11.79295 -0.79296 1.586 1.58593 1.7929 -1.79297 -1.5859 -1.58593z" stroke-width="1"></path>
  </g>
</svg>