<svg xmlns="http://www.w3.org/2000/svg" fill="none" viewBox="0 0 24 24" height="24" width="24">
  <g id="Laptop-Search-Fill">
    <path id="Vector" fill="#000000" d="M10 9H5v7h11v-3h2v3.6973l2 3V21c0 0.5523 -0.4477 1 -1 1H2c-0.55228 0 -1 -0.4477 -1 -1v-1.3027l2 -3V8c0 -0.55228 0.44772 -1 1 -1h6zm6.5 -8C18.9853 1 21 3.01472 21 5.5c0 0.88044 -0.2544 1.70086 -0.6914 2.39453L22.957 10.543l-1.414 1.414 -2.6485 -2.64841C18.2009 9.74564 17.3804 10 16.5 10 14.0147 10 12 7.98528 12 5.5S14.0147 1 16.5 1m0 2C15.1193 3 14 4.11929 14 5.5S15.1193 8 16.5 8 19 6.88071 19 5.5 17.8807 3 16.5 3" stroke-width="1"></path>
  </g>
</svg>