<svg viewBox="0 0 16 16" fill="none" xmlns="http://www.w3.org/2000/svg" id="Bag-Alt--Streamline-Unicons" height="16" width="16">
  <desc>
    Bag Alt Streamline Icon: https://streamlinehq.com
  </desc>
  <path d="M13.488 3.6879999999999997h-2.352V2.904c0 -0.6237999999999999 -0.24779999999999996 -1.222 -0.6888666666666667 -1.6631333333333331C10.006 0.7998 9.407733333333333 0.5519999999999999 8.783999999999999 0.5519999999999999h-1.5679999999999998c-0.6237333333333333 0 -1.222 0.24779999999999996 -1.6631333333333331 0.6888666666666667 -0.4410666666666666 0.44113333333333327 -0.6888666666666667 1.0393333333333332 -0.6888666666666667 1.6631333333333331v0.7839999999999999H2.5119999999999996c-0.6237999999999999 0 -1.222 0.24779999999999996 -1.6631333333333331 0.6888666666666667C0.4078 4.818 0.15999999999999998 5.4162 0.15999999999999998 6.04v7.055999999999999c0 0.6237333333333333 0.24779999999999996 1.222 0.6888666666666667 1.6631333333333331 0.44113333333333327 0.4410666666666666 1.0393333333333332 0.6888666666666667 1.6631333333333331 0.6888666666666667h10.975999999999999c0.6237333333333333 0 1.222 -0.24779999999999996 1.6631333333333331 -0.6888666666666667 0.4410666666666666 -0.44113333333333327 0.6888666666666667 -1.0393999999999999 0.6888666666666667 -1.6631333333333331V6.04c0 -0.6237999999999999 -0.24779999999999996 -1.222 -0.6888666666666667 -1.6631333333333331 -0.44113333333333327 -0.4410666666666666 -1.0393999999999999 -0.6888666666666667 -1.6631333333333331 -0.6888666666666667ZM6.4319999999999995 2.904c0 -0.20793333333333333 0.08266666666666667 -0.4073333333333333 0.22966666666666663 -0.5544 0.147 -0.147 0.34639999999999993 -0.22959999999999997 0.5543333333333333 -0.22959999999999997h1.5679999999999998c0.20793333333333333 0 0.4074 0.08259999999999999 0.5544 0.22959999999999997 0.147 0.14706666666666665 0.22959999999999997 0.3464666666666667 0.22959999999999997 0.5544v0.7839999999999999H6.4319999999999995V2.904Zm7.84 10.192c0 0.20793333333333333 -0.08259999999999999 0.4074 -0.22959999999999997 0.5544s-0.3464666666666667 0.22959999999999997 -0.5544 0.22959999999999997H2.5119999999999996c-0.20793333333333333 0 -0.4073333333333333 -0.08259999999999999 -0.5544 -0.22959999999999997 -0.147 -0.147 -0.22959999999999997 -0.3464666666666667 -0.22959999999999997 -0.5544v-4.311999999999999c1.9962666666666666 0.7919333333333333 4.1244 1.1989999999999998 6.271999999999999 1.1995333333333331 2.147533333333333 -0.0013333333333333333 4.275533333333333 -0.4083333333333333 6.271999999999999 -1.1995333333333331v4.311999999999999Zm0 -6.028933333333333C12.295066666666665 7.935533333333333 10.159266666666666 8.384 8 8.384c-2.1592666666666664 0 -4.295066666666666 -0.4484666666666666 -6.271999999999999 -1.3169333333333333V6.04c0 -0.20793333333333333 0.08259999999999999 -0.4073333333333333 0.22959999999999997 -0.5544 0.14706666666666665 -0.147 0.3464666666666667 -0.22959999999999997 0.5544 -0.22959999999999997h10.975999999999999c0.20793333333333333 0 0.4073333333333333 0.08259999999999999 0.5544 0.22959999999999997 0.147 0.14706666666666665 0.22959999999999997 0.3464666666666667 0.22959999999999997 0.5544v1.0270666666666666Z" fill="#ffffff" stroke-width="0.6667"></path>
</svg>