<svg xmlns="http://www.w3.org/2000/svg" viewBox="-0.5 -0.5 16 16" fill="none" stroke="#ffffff" stroke-linecap="round" stroke-linejoin="round" class="feather feather-github" id="Github--Streamline-Feather" height="16" width="16">
  <desc>
    Github Streamline Icon: https://streamlinehq.com
  </desc>
  <path d="M5.625 11.875c-3.125 0.9375 -3.125 -1.5625 -4.375 -1.875m8.75 3.75v-2.41875a2.10625 2.10625 0 0 0 -0.5874999999999999 -1.6312499999999999c1.9625000000000001 -0.21875 4.025 -0.9625 4.025 -4.375A3.4000000000000004 3.4000000000000004 0 0 0 12.5 2.9812499999999997 3.16875 3.16875 0 0 0 12.44375 0.625S11.70625 0.40625 10 1.55a8.3625 8.3625 0 0 0 -4.375 0C3.9187499999999997 0.40625 3.18125 0.625 3.18125 0.625A3.16875 3.16875 0 0 0 3.125 2.9812499999999997a3.4000000000000004 3.4000000000000004 0 0 0 -0.9375 2.3625c0 3.3875 2.0625 4.1312500000000005 4.025 4.375A2.10625 2.10625 0 0 0 5.625 11.331249999999999V13.75" stroke-width="1"></path>
</svg>