<svg viewBox="-0.5 -0.5 16 16" fill="none" xmlns="http://www.w3.org/2000/svg" id="Medium--Streamline-Iconoir" height="16" width="16">
  <desc>
    Medium Streamline Icon: https://streamlinehq.com
  </desc>
  <path d="M3.73075 10.515375c1.665375 0 3.0154375 -1.3500625 3.0154375 -3.015375 0 -1.665375 -1.3500625 -3.015375 -3.0154375 -3.015375S0.7153750000000001 5.834625 0.7153750000000001 7.5c0 1.6653125 1.3500625 3.015375 3.015375 3.015375Z" stroke="#ffffff" stroke-linecap="round" stroke-linejoin="round" stroke-width="1"></path>
  <path d="M9.7615625 10.515375c0.8326875 0 1.5076875 -1.3500625 1.5076875 -3.015375 0 -1.665375 -0.675 -3.015375 -1.5076875 -3.015375S8.253875 5.834625 8.253875 7.5c0 1.6653125 0.6749375000000001 3.015375 1.5076875 3.015375Z" stroke="#ffffff" stroke-linecap="round" stroke-linejoin="round" stroke-width="1"></path>
  <path d="M13.530750000000001 10.515375c0.416375 0 0.753875 -1.3500625 0.753875 -3.015375 0 -1.665375 -0.3375 -3.015375 -0.753875 -3.015375S12.7769375 5.834625 12.7769375 7.5c0 1.6653125 0.3375 3.015375 0.7538125 3.015375Z" stroke="#ffffff" stroke-linecap="round" stroke-linejoin="round" stroke-width="1"></path>
</svg>