<svg viewBox="-0.5 -0.5 16 16" fill="none" xmlns="http://www.w3.org/2000/svg" id="Behance-Tag--Streamline-Iconoir" height="16" width="16">
  <desc>
    Behance Tag Streamline Icon: https://streamlinehq.com
  </desc>
  <path d="M14.284625 4.484624999999999v6.03075c0 2.0816875 -1.6875624999999999 3.76925 -3.76925 3.76925H4.484624999999999c-2.0816875 0 -3.76925 -1.6875624999999999 -3.76925 -3.76925V4.484624999999999c0 -2.0816875 1.6875624999999999 -3.76925 3.76925 -3.76925h6.03075c2.0816875 0 3.76925 1.6875624999999999 3.76925 3.76925Z" stroke="#ffffff" stroke-linecap="round" stroke-linejoin="round" stroke-width="1"></path>
  <path d="M5.312812500000001 7.3689375c1.911125 0 1.911125 3.1464375 0 3.1464375l-2.335875 0v-3.1464999999999996m2.335875 0 -2.335875 0.0000625m2.335875 0c1.911125 0 1.911125 -2.8843124999999996 0 -2.8843124999999996H2.9769375v2.8843124999999996" stroke="#ffffff" stroke-linecap="round" stroke-linejoin="round" stroke-width="1"></path>
  <path d="M10.138437499999998 6.746124999999999c-1.0408125 0 -1.8845625 0.8438125000000001 -1.8845625 1.884625h3.7691875c0 -1.0408125 -0.84375 -1.884625 -1.884625 -1.884625Z" stroke="#ffffff" stroke-linecap="round" stroke-linejoin="round" stroke-width="1"></path>
  <path d="M8.253875 8.63075c0 1.040875 0.84375 1.884625 1.8845625 1.884625 0.6993125 0 1.123625 -0.243 1.3664375 -0.46725000000000005" stroke="#ffffff" stroke-linecap="round" stroke-linejoin="round" stroke-width="1"></path>
  <path d="M11.26925 4.8615625h-2.2615625" stroke="#ffffff" stroke-linecap="round" stroke-linejoin="round" stroke-width="1"></path>
</svg>