<svg viewBox="0 0 16 16" fill="none" xmlns="http://www.w3.org/2000/svg" id="Envelope-Alt--Streamline-Unicons" height="16" width="16">
  <desc>
    Envelope Alt Streamline Icon: https://streamlinehq.com
  </desc>
  <path d="M13.488 1.728H2.5119999999999996c-0.6237999999999999 0 -1.222 0.24779999999999996 -1.6631333333333331 0.6888666666666667C0.4078 2.8579999999999997 0.15999999999999998 3.4562 0.15999999999999998 4.08v7.84c0 0.6237333333333333 0.24779999999999996 1.222 0.6888666666666667 1.6631333333333331 0.44113333333333327 0.4410666666666666 1.0393333333333332 0.6888666666666667 1.6631333333333331 0.6888666666666667h10.975999999999999c0.6237333333333333 0 1.222 -0.24779999999999996 1.6631333333333331 -0.6888666666666667 0.4410666666666666 -0.44113333333333327 0.6888666666666667 -1.0393999999999999 0.6888666666666667 -1.6631333333333331V4.08c0 -0.6237999999999999 -0.24779999999999996 -1.222 -0.6888666666666667 -1.6631333333333331 -0.44113333333333327 -0.4410666666666666 -1.0393999999999999 -0.6888666666666667 -1.6631333333333331 -0.6888666666666667ZM2.5119999999999996 3.296h10.975999999999999c0.20793333333333333 0 0.4073333333333333 0.08259999999999999 0.5544 0.22959999999999997 0.147 0.14706666666666665 0.22959999999999997 0.3464666666666667 0.22959999999999997 0.5544L8 7.9059333333333335 1.728 4.08c0 -0.20793333333333333 0.08259999999999999 -0.4073333333333333 0.22959999999999997 -0.5544 0.14706666666666665 -0.147 0.3464666666666667 -0.22959999999999997 0.5544 -0.22959999999999997Zm11.76 8.623999999999999c0 0.20793333333333333 -0.08259999999999999 0.4074 -0.22959999999999997 0.5544s-0.3464666666666667 0.22959999999999997 -0.5544 0.22959999999999997H2.5119999999999996c-0.20793333333333333 0 -0.4073333333333333 -0.08259999999999999 -0.5544 -0.22959999999999997 -0.147 -0.147 -0.22959999999999997 -0.3464666666666667 -0.22959999999999997 -0.5544V5.867533333333332l5.864333333333333 3.5828666666666664c0.11913333333333333 0.06886666666666666 0.25439999999999996 0.10506666666666666 0.39199999999999996 0.10506666666666666s0.2728 -0.036199999999999996 0.39199999999999996 -0.10506666666666666l5.895666666666667 -3.5828666666666664V11.919999999999998Z" fill="#ffffff" stroke-width="0.6667"></path>
</svg>