<svg xmlns="http://www.w3.org/2000/svg" xmlns:xlink="http://www.w3.org/1999/xlink" viewBox="0,0,256,256" width="50px" height="50px" fill-rule="nonzero"><g fill="#ffffff" fill-rule="nonzero" stroke="none" stroke-width="1" stroke-linecap="butt" stroke-linejoin="miter" stroke-miterlimit="10" stroke-dasharray="" stroke-dashoffset="0" font-family="none" font-weight="none" font-size="none" text-anchor="none" style="mix-blend-mode: normal"><g transform="scale(5.12,5.12)"><path d="M19.28711,2.14453c-0.04152,-0.00687 -0.08151,0.00747 -0.12305,0.00586c-0.08849,-0.00343 -0.17568,-0.00587 -0.26172,0.01367c-0.05495,0.01256 -0.10213,0.03889 -0.1543,0.06055c-0.07524,0.03081 -0.1463,0.06239 -0.21289,0.11133c-0.01815,0.01335 -0.04125,0.0166 -0.05859,0.03125c-0.03011,0.02543 -0.04372,0.06336 -0.07031,0.0918c-0.03449,0.03638 -0.07799,0.06114 -0.10742,0.10352c-0.01885,0.02732 -0.02132,0.05946 -0.03711,0.08789c-0.02907,0.0519 -0.04897,0.10389 -0.06836,0.16016c-0.02622,0.07632 -0.04557,0.14982 -0.05273,0.22852c-0.00303,0.03161 -0.01953,0.05973 -0.01953,0.0918v7.79883c-7.3201,0.51679 -13.12109,6.62193 -13.12109,14.07031c0,7.786 6.33409,14.12109 14.12109,14.12109c2.67721,0 5.175,-0.76305 7.31055,-2.0625l10.50977,12.63672c0.198,0.237 0.48253,0.36133 0.76953,0.36133c0.226,0 0.45267,-0.07842 0.63867,-0.23242c0.425,-0.352 0.48191,-0.98125 0.12891,-1.40625l-10.40039,-12.50977c2.41434,-1.98579 4.15507,-4.75726 4.83984,-7.91797l12.83203,-5.34766c0.372,-0.155 0.61523,-0.51888 0.61523,-0.92187v-14.2168c0,-0.07174 -0.02262,-0.13728 -0.03711,-0.20508c-0.00948,-0.04516 -0.0076,-0.09095 -0.02344,-0.13477c-0.04244,-0.1175 -0.10647,-0.22361 -0.1875,-0.31641c-0.00419,-0.0048 -0.00547,-0.01089 -0.00977,-0.01562c-0.02191,-0.02416 -0.05253,-0.03316 -0.07617,-0.05469c-0.06516,-0.05977 -0.13304,-0.11524 -0.21289,-0.15625c-0.04492,-0.02303 -0.09133,-0.03494 -0.13867,-0.05078c-0.05058,-0.01712 -0.09624,-0.04375 -0.15039,-0.05273zM23.38477,4.85547l19.77539,3.29492l-6.49023,5.87305zM20.12109,5.0332l16.06445,11.08594c0.172,0.118 0.37036,0.17773 0.56836,0.17773c0.242,0 0.48188,-0.08872 0.67188,-0.26172l6.93945,-6.2793v11.29687l-11.1582,4.65039c0.01164,-0.23454 0.03516,-0.46575 0.03516,-0.70312c0,-7.44884 -5.80044,-13.55418 -13.12109,-14.07031zM18.12109,12.92969v19.72461c0,0.334 0.16731,0.64603 0.44531,0.83203c0.167,0.111 0.35969,0.16797 0.55469,0.16797c0.13,0 0.26172,-0.02517 0.38672,-0.07617l11.05469,-4.60742c-1.64903,4.73702 -6.14932,8.15039 -11.44141,8.15039c-6.684,0 -12.12109,-5.43709 -12.12109,-12.12109c0,-6.3461 4.90478,-11.55855 11.12109,-12.07031zM20.12109,12.92969c0.64226,0.05279 1.26867,0.15919 1.87891,0.30859v2.73438l-1.87891,0.02539zM24,13.91211c0.70384,0.31089 1.37372,0.68381 2,1.11719v0.88672l-2,0.02734zM28.9082,17.87695c0.66698,0.91385 1.20703,1.92234 1.59961,3.00391l-2.50781,0.02734v-3.01953zM26,17.91602v3.01563l-2,0.02344v-3.00977zM22,17.97266v3.00391l-1.87891,0.02148v-3zM31.04297,22.86914c0.12365,0.69317 0.19922,1.40267 0.19922,2.13086c0,0.29783 -0.0237,0.5903 -0.04492,0.88281l-3.19727,0.0332v-3.00586l3.01172,-0.03516c0.0111,-0.00012 0.02024,-0.00538 0.03125,-0.00586zM26,22.93164v3.00586l-2,0.02148v-3.00391zM22,22.97656v3.00195l-1.87891,0.01953v-3zM26,27.9375v0.76758l-2,0.83398v-1.58008zM22,27.97852v2.02148c0,0.12155 0.02872,0.23411 0.06836,0.3418l-1.94727,0.8125v-3.15625z"></path></g></g></svg>